HIERARCHY
ROOT root
{
	OFFSET 0.000000 0.000000 0.000000
	CHANNELS 6 Xposition Yposition Zposition Zrotation Yrotation Xrotation
	JOINT lhip
	{
		OFFSET 0.058581 -0.082280 -0.017664
		CHANNELS 3 Zrotation Yrotation Xrotation
		JOINT lknee
		{
			OFFSET 0.043451 -0.386469 0.008037
			CHANNELS 3 Zrotation Yrotation Xrotation
			JOINT lankle
			{
				OFFSET -0.014790 -0.426874 -0.037428
				CHANNELS 3 Zrotation Yrotation Xrotation
				JOINT ltoe
				{
					OFFSET 0.041054 -0.060286 0.122042
					CHANNELS 3 Zrotation Yrotation Xrotation
					End Site
					{
						OFFSET 0.000000 0.000000 0.000000
					}
				}
			}
		}
	}
	JOINT rhip
	{
		OFFSET -0.060310 -0.090513 -0.013543
		CHANNELS 3 Zrotation Yrotation Xrotation
		JOINT rknee
		{
			OFFSET -0.043257 -0.383688 -0.004843
			CHANNELS 3 Zrotation Yrotation Xrotation
			JOINT rankle
			{
				OFFSET 0.019056 -0.420046 -0.034562
				CHANNELS 3 Zrotation Yrotation Xrotation
				JOINT rtoe
				{
					OFFSET -0.034840 -0.062106 0.130323
					CHANNELS 3 Zrotation Yrotation Xrotation
					End Site
					{
						OFFSET 0.000000 0.000000 0.000000
					}
				}
			}
		}
	}
	JOINT lowerback
	{
		OFFSET 0.004439 0.124404 -0.038385
		CHANNELS 3 Zrotation Yrotation Xrotation
		JOINT upperback
		{
			OFFSET 0.004488 0.137956 0.026820
			CHANNELS 3 Zrotation Yrotation Xrotation
			JOINT chest
			{
				OFFSET -0.002265 0.056032 0.002855
				CHANNELS 3 Zrotation Yrotation Xrotation
				JOINT lowerneck
				{
					OFFSET -0.013390 0.211636 -0.033468
					CHANNELS 3 Zrotation Yrotation Xrotation
					JOINT upperneck
					{
						OFFSET 0.010113 0.088937 0.050410
						CHANNELS 3 Zrotation Yrotation Xrotation
						End Site
						{
							OFFSET 0.000000 0.000000 0.000000
						}
					}
				}
				JOINT lclavicle
				{
					OFFSET 0.071702 0.114000 -0.018898
					CHANNELS 3 Zrotation Yrotation Xrotation
					JOINT lshoulder
					{
						OFFSET 0.122921 0.045205 -0.019046
						CHANNELS 3 Zrotation Yrotation Xrotation
						JOINT lelbow
						{
							OFFSET 0.255332 -0.015649 -0.022946
							CHANNELS 3 Zrotation Yrotation Xrotation
							JOINT lwrist
							{
								OFFSET 0.265709 0.012698 -0.007375
								CHANNELS 3 Zrotation Yrotation Xrotation
								End Site
								{
									OFFSET 0.000000 0.000000 0.000000
								}
							}
						}
					}
				}
				JOINT rclavicle
				{
					OFFSET -0.082954 0.112472 -0.023707
					CHANNELS 3 Zrotation Yrotation Xrotation
					JOINT rshoulder
					{
						OFFSET -0.113228 0.046853 -0.008472
						CHANNELS 3 Zrotation Yrotation Xrotation
						JOINT relbow
						{
							OFFSET -0.260127 -0.014369 -0.031269
							CHANNELS 3 Zrotation Yrotation Xrotation
							JOINT rwrist
							{
								OFFSET -0.269108 0.006794 -0.006027
								CHANNELS 3 Zrotation Yrotation Xrotation
								End Site
								{
									OFFSET 0.000000 0.000000 0.000000
								}
							}
						}
					}
				}
			}
		}
	}
}
MOTION
Frames: 14
Frame Time: 0.033333
-0.001448 0.235397 0.936334 95.089476 0.267763 87.451557 10.576468 -0.103885 -22.797447 -7.340192 7.033582 46.070120 1.416402 1.131446 -23.124579 0.000000 -0.000000 0.000000 -9.432398 -7.278984 -26.156906 1.863784 -14.601101 51.768107 -1.136695 -0.119471 -20.921844 0.000000 -0.000000 0.000000 0.780482 0.208643 21.531993 5.141973 -5.595283 9.286507 0.643834 -1.998457 -5.144736 1.151892 3.980814 -11.116015 -1.658403 -7.244081 9.651758 -28.881310 -13.495458 -0.382717 -49.195581 -17.032517 8.507797 156.791100 -54.606231 -119.306388 -33.742488 -0.820601 4.070987 32.730218 13.769650 2.416573 48.783477 13.500223 10.568303 -151.481536 53.490030 -110.704144 39.247905 -11.178035 13.778257 
-0.004140 0.236624 0.920290 95.537049 0.378473 87.426455 11.410147 -0.001826 -25.281216 -7.819051 7.942422 50.178574 2.210651 0.382295 -24.856767 0.000000 -0.000000 0.000000 -10.271476 -8.090988 -28.213397 1.771034 -15.278731 56.046739 -1.664426 0.476783 -22.834076 0.000000 -0.000000 0.000000 0.600793 0.410788 22.521394 5.488782 -5.851509 9.574134 0.365789 -1.732284 -5.859965 1.454329 4.334141 -12.256115 -2.082393 -8.395026 10.452312 -29.157629 -14.935295 -0.010648 -48.938969 -18.343206 8.043173 157.001800 -52.689741 -117.755155 -35.729015 -0.667950 3.280647 33.968401 15.230555 3.079947 48.272135 15.397669 9.812414 -153.208111 50.973630 -109.730095 43.903759 -12.213992 12.194564 
-0.006990 0.238104 0.906130 95.890748 0.543180 87.208430 11.943394 0.192838 -27.246999 -8.258346 8.436255 53.699303 2.702793 0.368247 -26.457865 0.000000 -0.000000 0.000000 -10.797590 -8.652214 -29.891301 1.866969 -15.488180 59.678438 -2.274005 0.394586 -24.525570 0.000000 -0.000000 0.000000 0.350653 0.455109 23.685259 5.801748 -5.995413 9.661353 0.548839 -1.767135 -6.173292 1.392734 4.564381 -13.440737 -2.448581 -8.667720 10.303828 -29.693606 -15.686277 -0.263969 -48.575689 -18.966370 7.653144 157.340927 -51.723052 -117.776541 -37.022779 0.138807 3.194637 34.780542 16.094960 3.352367 47.846018 17.445618 9.532450 -154.249047 50.161918 -110.393718 45.424675 -13.567362 12.070621 
-0.008559 0.240810 0.891996 96.049775 0.727212 86.766729 12.230954 0.047038 -28.863629 -8.466573 8.678690 57.282201 3.255173 0.823838 -28.065077 0.000000 -0.000000 0.000000 -11.276727 -8.920687 -31.215583 1.768730 -15.611167 63.196931 -2.751184 0.338599 -26.120524 0.000000 -0.000000 0.000000 0.345017 0.385747 25.139580 6.016239 -6.075797 9.296983 0.455753 -1.791571 -6.498033 1.477393 4.867487 -14.387960 -2.855488 -9.175779 10.313073 -29.977108 -16.172019 -0.112851 -48.443890 -18.923205 7.362918 156.922615 -51.266718 -117.177775 -38.618418 0.836147 2.462563 35.826608 16.935708 3.828430 47.954502 19.032887 9.651488 -153.780718 49.605634 -109.526899 47.823290 -14.874947 11.452816 
-0.008669 0.242330 0.886077 95.650012 0.863144 86.465399 12.353375 0.011437 -29.242656 -8.480456 8.797729 58.750479 3.413515 1.289677 -28.808225 0.000000 -0.000000 0.000000 -11.359245 -8.786527 -31.732453 1.835772 -15.460649 64.628044 -2.916498 0.260836 -26.717893 0.000000 -0.000000 0.000000 0.301416 0.399863 25.781585 6.027669 -5.839423 8.992263 0.451535 -1.746055 -6.566419 1.404388 4.863406 -14.469200 -2.944102 -9.151440 10.152820 -30.101811 -16.187718 -0.017127 -48.466416 -18.467189 7.191559 156.702391 -51.245270 -116.846942 -39.579767 1.086335 2.019135 36.008335 17.223466 3.920398 48.528047 19.402762 9.749925 -153.245906 49.801092 -109.005545 48.997442 -15.371976 10.686737 
-0.008094 0.244305 0.881084 95.048306 1.054168 86.128355 12.423792 -0.023278 -29.412250 -8.346046 8.976684 60.169050 3.639786 1.953929 -29.807310 0.000000 -0.000000 0.000000 -11.455564 -8.699792 -32.063254 2.000433 -15.382086 65.856090 -3.110684 0.454317 -27.297384 0.000000 -0.000000 0.000000 0.251778 0.545931 25.744528 6.084517 -5.619803 9.275574 0.392992 -1.580959 -6.350885 1.545530 5.106427 -14.847593 -3.209582 -9.401192 9.951416 -30.141309 -15.968793 -0.094116 -48.452653 -18.125224 7.127528 156.757879 -51.486186 -116.971467 -40.201032 1.302521 1.967852 36.065718 17.207148 3.686962 48.985926 19.719969 9.740524 -152.752742 50.119262 -108.399350 50.617775 -15.977696 10.110631 
-0.006470 0.246493 0.878728 94.399764 1.220756 85.800824 12.563126 -0.275497 -29.153842 -8.290283 9.267703 60.921822 3.831827 2.519772 -30.493729 0.000000 -0.000000 0.000000 -11.554801 -8.743968 -31.933884 2.287556 -15.285090 66.371246 -3.183962 0.756859 -27.623384 0.000000 -0.000000 0.000000 0.272352 0.748288 25.445424 6.103199 -5.469172 9.651823 0.305934 -1.383123 -6.236378 1.682458 5.322951 -15.099570 -3.272972 -9.670206 9.699420 -30.071057 -15.583688 -0.425360 -48.481705 -17.658324 7.337365 156.906904 -51.637653 -117.558747 -40.798326 1.562167 1.890504 36.211438 16.956510 3.660612 48.853155 19.656619 9.702871 -152.617194 49.923408 -108.563267 51.385078 -16.173870 9.888460 
-0.004310 0.248680 0.878256 93.619449 1.339282 85.627064 12.606942 -0.115877 -28.705366 -8.306940 9.377991 61.166007 3.849089 2.921588 -30.975066 0.000000 -0.000000 0.000000 -11.588088 -8.627862 -31.798288 2.615040 -15.125979 66.426333 -3.033213 0.952355 -27.679649 0.000000 -0.000000 0.000000 0.176358 0.922319 24.840773 6.167224 -5.220371 9.849817 0.294240 -1.252288 -6.075597 1.739805 5.420369 -14.942143 -3.336801 -9.678646 9.371934 -30.043906 -15.139013 -0.425555 -48.109543 -17.202559 7.241896 157.010604 -51.769566 -117.959766 -41.160442 1.312368 1.344703 36.362055 16.645807 3.527751 48.381896 19.379859 9.615479 -152.946082 49.673066 -109.193577 51.939471 -15.788893 9.228394 
-0.002167 0.251357 0.878834 93.316651 1.349929 85.782116 12.459488 -0.393629 -28.588512 -8.274620 9.574385 61.133508 4.026612 3.330291 -31.185642 0.000000 -0.000000 0.000000 -11.832399 -8.831990 -31.713566 2.962931 -15.120578 66.172357 -3.039106 1.161304 -27.666217 0.000000 -0.000000 0.000000 0.367969 0.913327 23.531822 6.092110 -5.409593 10.207287 0.102458 -1.266577 -5.775087 1.609208 5.500757 -14.878071 -3.228180 -9.414069 8.940157 -29.812615 -14.878605 -0.525389 -47.630575 -16.763013 7.193477 156.904804 -51.990880 -118.483281 -41.231272 1.077368 0.946467 36.162257 16.363142 3.303556 48.226023 19.262113 9.716875 -153.236801 49.533846 -109.960577 51.953737 -15.455127 8.733022 
0.000624 0.253976 0.880861 92.713347 1.381266 85.799703 12.347327 -0.262382 -28.059564 -8.250525 9.734310 60.832158 4.058931 3.603596 -31.352496 0.000000 -0.000000 0.000000 -11.864927 -8.658712 -31.468071 3.108571 -14.961693 65.787939 -2.898061 1.255439 -27.372617 0.000000 -0.000000 0.000000 0.401617 0.697777 23.169698 6.050512 -5.231602 9.220809 0.032196 -1.218356 -5.481910 1.645270 5.759797 -14.990735 -3.537973 -9.220950 8.977581 -29.388600 -14.001385 -0.793890 -47.156085 -16.269836 7.149316 157.542330 -52.307779 -119.541231 -41.630090 0.431596 0.674024 35.664386 15.704516 2.817133 48.394220 18.979732 10.244379 -153.880936 49.564084 -111.108281 51.452832 -14.778616 8.423061 
0.002431 0.255706 0.882451 92.303620 1.311143 85.507661 12.123700 0.001607 -27.303234 -8.258636 9.683444 60.407039 3.949348 3.668108 -31.366880 0.000000 -0.000000 0.000000 -11.936544 -8.502659 -30.964271 3.077109 -14.750979 65.419431 -2.916942 1.311781 -27.438739 0.000000 -0.000000 0.000000 0.350885 0.388985 22.679680 5.890478 -5.490440 10.242358 -0.190775 -0.819481 -6.134365 1.754718 6.372451 -15.699076 -3.800272 -9.407761 9.194007 -28.691409 -13.880003 -1.506546 -46.771521 -15.954861 7.200147 157.635122 -52.393049 -119.889460 -41.753630 0.221208 0.571651 35.510832 15.875922 2.540232 48.315043 19.043155 10.488688 -153.930594 49.442170 -111.340517 50.964018 -14.471533 8.736109 
0.004060 0.257470 0.884449 92.103264 1.272361 85.524742 12.007842 0.057277 -26.841736 -8.327134 9.813778 59.861583 3.977425 3.724872 -31.360508 0.000000 -0.000000 0.000000 -11.993907 -8.473699 -30.639757 3.194748 -14.564245 64.865662 -2.722728 1.293605 -27.316181 0.000000 -0.000000 0.000000 0.370484 0.552156 22.054335 6.010734 -5.430921 10.199545 -0.090812 -0.900907 -6.084342 1.532330 6.300211 -15.940810 -3.882393 -9.398785 8.758012 -28.545282 -14.023342 -1.613856 -46.425905 -16.192747 7.100550 157.623980 -52.589968 -119.883682 -42.078959 0.075272 0.425664 35.355879 15.884452 2.382340 47.706729 19.165973 10.288836 -154.059537 49.160734 -111.414111 50.872827 -14.494315 8.795998 
0.005652 0.258699 0.887437 92.025400 1.267792 85.616913 11.895164 0.163717 -26.361189 -8.240806 9.926135 59.101560 4.096669 3.562015 -31.228518 0.000000 -0.000000 0.000000 -12.021351 -8.435678 -30.276541 3.241292 -14.467263 64.165148 -2.699965 1.453664 -27.055268 0.000000 -0.000000 0.000000 0.434090 0.675554 21.159521 6.142768 -5.410768 10.465962 -0.058286 -0.955098 -6.183194 1.418411 6.332783 -16.301448 -4.031528 -9.469131 8.536303 -27.805724 -14.078399 -1.984735 -47.292326 -16.661422 7.317779 157.449994 -52.797669 -119.576078 -43.255265 0.575445 0.300465 34.855159 15.717385 1.994404 47.770010 19.572075 10.195657 -153.986710 48.918140 -111.068410 52.305438 -15.514107 9.184556 
0.008275 0.259793 0.892683 91.958536 1.334773 85.881180 11.733149 0.301590 -25.713512 -8.117180 9.808925 57.898288 4.112879 3.414010 -30.843557 0.000000 -0.000000 0.000000 -11.857319 -8.419271 -29.711772 3.347334 -14.240692 62.853056 -2.652683 1.703743 -26.411202 0.000000 -0.000000 0.000000 0.483932 0.776324 20.359657 6.286327 -5.279777 9.615656 0.185182 -1.002304 -5.824304 1.106265 6.186640 -16.248978 -4.049786 -9.306406 8.398170 -27.000045 -13.898735 -1.995193 -49.067104 -17.175391 7.335757 157.780569 -52.966354 -118.829377 -44.391080 0.980600 -0.362657 34.190026 15.474402 1.987876 48.394305 19.967587 9.799135 -154.578103 48.796911 -110.505227 53.527751 -16.445586 7.906661 
